<?xml version="1.0" standalone="no"?>
<!DOCTYPE svg PUBLIC "-//W3C//DTD SVG 20010904//EN"
 "http://www.w3.org/TR/2001/REC-SVG-20010904/DTD/svg10.dtd">
<svg version="1.0" xmlns="http://www.w3.org/2000/svg"
 width="40.000000pt" height="35.000000pt" viewBox="0 0 40.000000 35.000000"
 preserveAspectRatio="xMidYMid meet">

<g transform="translate(0.000000,35.000000) scale(0.100000,-0.100000)"
fill="#000000" stroke="none">
<path d="M0 334 c0 -14 3 -14 15 -4 19 16 19 20 0 20 -8 0 -15 -7 -15 -16z"/>
<path d="M370 346 c0 -2 7 -9 15 -16 12 -10 15 -10 15 4 0 9 -7 16 -15 16 -8
0 -15 -2 -15 -4z"/>
<path d="M37 304 c-12 -13 -8 -179 5 -192 8 -8 49 -12 120 -12 84 0 114 -4
134 -16 14 -10 24 -12 22 -5 -2 6 8 17 22 24 24 12 25 16 25 107 l0 95 -161 3
c-88 1 -163 -1 -167 -4z"/>
<path d="M0 45 l0 -45 171 0 172 0 -46 35 c-46 35 -46 35 -152 35 -58 0 -115
5 -126 10 -17 10 -19 7 -19 -35z"/>
<path d="M378 79 c-25 -14 -21 -79 5 -79 14 0 17 9 17 45 0 25 -1 45 -2 45 -2
0 -11 -5 -20 -11z"/>
</g>
</svg>
